<svg width="91" height="31" viewBox="0 0 91 31" fill="none" xmlns="http://www.w3.org/2000/svg">
<rect x="0.169922" y="0.685791" width="90" height="30" fill="white"/>
<path d="M16.0499 13.9855H12.0699C11.8966 13.9855 11.7499 14.0189 11.6299 14.0855C11.5233 14.1389 11.4299 14.2189 11.3499 14.3255C11.2699 14.4322 11.2099 14.5522 11.1699 14.6855C11.1299 14.8055 11.1099 14.9255 11.1099 15.0455C11.1099 15.2989 11.1899 15.5322 11.3499 15.7455C11.5233 15.9455 11.7299 16.0455 11.9699 16.0455H14.2099C14.6766 16.0455 15.0833 16.1255 15.4299 16.2855C15.7899 16.4455 16.0833 16.6655 16.3099 16.9455C16.5499 17.2255 16.7233 17.5589 16.8299 17.9455C16.9499 18.3322 17.0099 18.7455 17.0099 19.1855V19.2455C17.0099 19.6855 16.9366 20.0855 16.7899 20.4455C16.6566 20.8055 16.4633 21.1122 16.2099 21.3655C15.9566 21.6189 15.6566 21.8189 15.3099 21.9655C14.9633 22.1122 14.5966 22.1855 14.2099 22.1855H9.36992V20.2055H13.5299C13.8366 20.2055 14.1166 20.1189 14.3699 19.9455C14.6366 19.7722 14.7766 19.5122 14.7899 19.1655V19.1855C14.7899 18.9855 14.7499 18.8189 14.6699 18.6855C14.6033 18.5522 14.5099 18.4455 14.3899 18.3655C14.2699 18.2722 14.1366 18.2055 13.9899 18.1655C13.8433 18.1255 13.6899 18.1055 13.5299 18.1055H11.7299C11.1433 18.1055 10.6566 18.0122 10.2699 17.8255C9.89659 17.6389 9.59659 17.3989 9.36992 17.1055C9.15659 16.8122 9.00992 16.4789 8.92992 16.1055C8.84992 15.7322 8.80992 15.3522 8.80992 14.9655C8.80992 14.5655 8.86992 14.1789 8.98992 13.8055C9.10992 13.4322 9.28326 13.1055 9.50992 12.8255C9.74992 12.5322 10.0433 12.3055 10.3899 12.1455C10.7366 11.9855 11.1299 11.9055 11.5699 11.9055H16.0499V13.9855ZM18.2426 15.2255C18.2826 14.7989 18.3759 14.3922 18.5226 14.0055C18.6826 13.6189 18.9092 13.2789 19.2026 12.9855C19.4959 12.6922 19.8626 12.4589 20.3026 12.2855C20.7426 12.0989 21.2492 12.0055 21.8226 12.0055H23.0226C23.6226 12.0055 24.1426 12.1055 24.5826 12.3055C25.0359 12.5055 25.4092 12.7722 25.7026 13.1055C25.9959 13.4255 26.2159 13.7989 26.3626 14.2255C26.5092 14.6389 26.5826 15.0589 26.5826 15.4855V22.1855H20.9026C20.4626 22.1855 20.0692 22.1055 19.7226 21.9455C19.3759 21.7722 19.0826 21.5522 18.8426 21.2855C18.6159 21.0055 18.4426 20.6789 18.3226 20.3055C18.2159 19.9322 18.1626 19.5322 18.1626 19.1055C18.1626 18.6922 18.2226 18.3055 18.3426 17.9455C18.4626 17.5855 18.6359 17.2789 18.8626 17.0255C19.0892 16.7589 19.3692 16.5522 19.7026 16.4055C20.0492 16.2455 20.4359 16.1655 20.8626 16.1655H24.2826V15.9655C24.2826 15.7255 24.2626 15.5055 24.2226 15.3055C24.1826 15.0922 24.1092 14.9122 24.0026 14.7655C23.8959 14.6189 23.7359 14.5055 23.5226 14.4255C23.3092 14.3322 23.0226 14.2855 22.6626 14.2855H22.1626C21.6292 14.2855 21.2492 14.3655 21.0226 14.5255C20.7959 14.6722 20.6426 14.9055 20.5626 15.2255H18.2426ZM20.3026 19.1055C20.3026 19.4522 20.3692 19.7122 20.5026 19.8855C20.6492 20.0455 20.8092 20.1255 20.9826 20.1255H24.2826V18.0855H20.9826C20.8092 18.0855 20.6492 18.1722 20.5026 18.3455C20.3692 18.5189 20.3026 18.7722 20.3026 19.1055ZM32.3501 14.2855C32.0034 14.2855 31.7167 14.3322 31.4901 14.4255C31.2767 14.5055 31.1101 14.6189 30.9901 14.7655C30.8701 14.9122 30.7834 15.0922 30.7301 15.3055C30.6901 15.5055 30.6701 15.7255 30.6701 15.9655V22.1855H28.3301V12.0055H30.6701V12.2655C31.1367 12.0922 31.6367 12.0055 32.1701 12.0055H33.2101C33.7967 12.0055 34.3167 12.1055 34.7701 12.3055C35.2234 12.5055 35.5967 12.7722 35.8901 13.1055C36.1967 13.4255 36.4234 13.7989 36.5701 14.2255C36.7301 14.6389 36.8101 15.0589 36.8101 15.4855V22.1855H34.4701V15.9655C34.4701 15.7255 34.4501 15.5055 34.4101 15.3055C34.3701 15.0922 34.2901 14.9122 34.1701 14.7655C34.0634 14.6189 33.9034 14.5055 33.6901 14.4255C33.4767 14.3322 33.1901 14.2855 32.8301 14.2855H32.3501ZM46.4873 12.0055V22.2055C46.4873 22.7522 46.4073 23.2322 46.2473 23.6455C46.0873 24.0722 45.8673 24.4322 45.5873 24.7255C45.3073 25.0322 44.9673 25.2589 44.5673 25.4055C44.1673 25.5655 43.7273 25.6455 43.2473 25.6455H38.6673V23.4255H42.8673C43.2806 23.4255 43.6206 23.2989 43.8873 23.0455C44.1673 22.7922 44.3073 22.4389 44.3073 21.9855V21.8655H41.3273C40.8873 21.8655 40.4673 21.7922 40.0673 21.6455C39.6806 21.4855 39.3406 21.2522 39.0473 20.9455C38.7539 20.6389 38.5206 20.2655 38.3473 19.8255C38.1739 19.3722 38.0873 18.8522 38.0873 18.2655V15.6055C38.0873 15.0189 38.1739 14.5055 38.3473 14.0655C38.5206 13.6122 38.7539 13.2322 39.0473 12.9255C39.3406 12.6189 39.6806 12.3922 40.0673 12.2455C40.4673 12.0855 40.8873 12.0055 41.3273 12.0055H46.4873ZM44.2873 14.2255H41.8273C41.6273 14.2255 41.4406 14.2722 41.2673 14.3655C41.0939 14.4455 40.9406 14.5655 40.8073 14.7255C40.6739 14.8722 40.5673 15.0389 40.4873 15.2255C40.4073 15.4122 40.3673 15.6189 40.3673 15.8455V18.0055C40.3673 18.2322 40.4073 18.4455 40.4873 18.6455C40.5673 18.8455 40.6739 19.0189 40.8073 19.1655C40.9406 19.3122 41.0939 19.4322 41.2673 19.5255C41.4406 19.6055 41.6273 19.6455 41.8273 19.6455H44.2873V14.2255ZM52.4338 19.9055C52.7672 19.9055 53.0338 19.8655 53.2338 19.7855C53.4472 19.7055 53.6138 19.5989 53.7338 19.4655C53.8672 19.3322 53.9605 19.1722 54.0138 18.9855C54.0672 18.7989 54.0938 18.5989 54.0938 18.3855V12.0055H56.4338V22.1855H54.0938V21.9255C53.8805 22.0189 53.6472 22.0855 53.3938 22.1255C53.1538 22.1655 52.8938 22.1855 52.6138 22.1855H51.5938C50.9938 22.1855 50.4672 22.0855 50.0138 21.8855C49.5738 21.6855 49.2072 21.4255 48.9138 21.1055C48.6205 20.7722 48.3938 20.3989 48.2338 19.9855C48.0872 19.5589 48.0138 19.1322 48.0138 18.7055V12.0055H50.3338V18.2255C50.3338 18.4655 50.3538 18.6855 50.3938 18.8855C50.4338 19.0855 50.5138 19.2655 50.6338 19.4255C50.7538 19.5722 50.9205 19.6922 51.1338 19.7855C51.3472 19.8655 51.6338 19.9055 51.9938 19.9055H52.4338ZM60.4138 22.1855H58.0538V12.0055H60.4138V22.1855ZM60.4138 10.9055H58.0538V8.56555H60.4138V10.9055ZM66.3149 14.2855C65.9683 14.2855 65.6816 14.3322 65.4549 14.4255C65.2416 14.5055 65.0749 14.6189 64.9549 14.7655C64.8349 14.9122 64.7483 15.0922 64.6949 15.3055C64.6549 15.5055 64.6349 15.7255 64.6349 15.9655V22.1855H62.2949V12.0055H64.6349V12.2655C65.1016 12.0922 65.6016 12.0055 66.1349 12.0055H67.1749C67.7616 12.0055 68.2816 12.1055 68.7349 12.3055C69.1883 12.5055 69.5616 12.7722 69.8549 13.1055C70.1616 13.4255 70.3883 13.7989 70.5349 14.2255C70.6949 14.6389 70.7749 15.0589 70.7749 15.4855V22.1855H68.4349V15.9655C68.4349 15.7255 68.4149 15.5055 68.3749 15.3055C68.3349 15.0922 68.2549 14.9122 68.1349 14.7655C68.0283 14.6189 67.8683 14.5055 67.6549 14.4255C67.4416 14.3322 67.1549 14.2855 66.7949 14.2855H66.3149ZM72.0521 15.6255C72.0521 15.1322 72.1454 14.6722 72.3321 14.2455C72.5188 13.8055 72.7654 13.4189 73.0721 13.0855C73.3788 12.7522 73.7321 12.4922 74.1321 12.3055C74.5321 12.1055 74.9321 12.0055 75.3321 12.0055H77.6121C78.1321 12.0055 78.5921 12.1189 78.9921 12.3455C79.4054 12.5589 79.7454 12.8389 80.0121 13.1855C80.2921 13.5189 80.5054 13.8989 80.6521 14.3255C80.8121 14.7389 80.8921 15.1455 80.8921 15.5455V18.1255H74.4121V18.6655C74.4121 19.1455 74.5454 19.4855 74.8121 19.6855C75.0788 19.8855 75.4321 19.9855 75.8721 19.9855H80.5321V22.2255H75.3521C74.8988 22.2255 74.4721 22.1389 74.0721 21.9655C73.6721 21.7789 73.3188 21.5322 73.0121 21.2255C72.7188 20.9189 72.4854 20.5522 72.3121 20.1255C72.1388 19.6989 72.0521 19.2322 72.0521 18.7255V15.6255ZM74.4321 16.2255H78.5721V16.1255C78.5721 15.6055 78.4388 15.1789 78.1721 14.8455C77.9054 14.4989 77.5454 14.3255 77.0921 14.3255H75.8521C75.6388 14.3255 75.4454 14.3789 75.2721 14.4855C75.0988 14.5789 74.9521 14.7055 74.8321 14.8655C74.7121 15.0255 74.6121 15.2189 74.5321 15.4455C74.4654 15.6589 74.4321 15.8855 74.4321 16.1255V16.2255Z" fill="#070707"/>
</svg>
