<svg width="1950" height="663" viewBox="0 0 1950 663" fill="none" xmlns="http://www.w3.org/2000/svg">
<path d="M209.64 273.7H104.17C99.577 273.7 95.6903 274.583 92.5103 276.35C89.6836 277.763 87.2103 279.883 85.0903 282.71C82.9703 285.537 81.3803 288.717 80.3203 292.25C79.2603 295.43 78.7303 298.61 78.7303 301.79C78.7303 308.503 80.8503 314.687 85.0903 320.34C89.6836 325.64 95.1603 328.29 101.52 328.29H160.88C173.247 328.29 184.024 330.41 193.21 334.65C202.75 338.89 210.524 344.72 216.53 352.14C222.89 359.56 227.484 368.393 230.31 378.64C233.49 388.887 235.08 399.84 235.08 411.5V413.09C235.08 424.75 233.137 435.35 229.25 444.89C225.717 454.43 220.594 462.557 213.88 469.27C207.167 475.983 199.217 481.283 190.03 485.17C180.844 489.057 171.127 491 160.88 491H32.6203V438.53H142.86C150.987 438.53 158.407 436.233 165.12 431.64C172.187 427.047 175.897 420.157 176.25 410.97V411.5C176.25 406.2 175.19 401.783 173.07 398.25C171.304 394.717 168.83 391.89 165.65 389.77C162.47 387.297 158.937 385.53 155.05 384.47C151.164 383.41 147.1 382.88 142.86 382.88H95.1603C79.6136 382.88 66.717 380.407 56.4703 375.46C46.577 370.513 38.627 364.153 32.6203 356.38C26.967 348.607 23.0803 339.773 20.9603 329.88C18.8403 319.987 17.7803 309.917 17.7803 299.67C17.7803 289.07 19.3703 278.823 22.5503 268.93C25.7303 259.037 30.3236 250.38 36.3303 242.96C42.6903 235.187 50.4636 229.18 59.6503 224.94C68.837 220.7 79.2603 218.58 90.9203 218.58H209.64V273.7ZM267.746 306.56C268.806 295.253 271.279 284.477 275.166 274.23C279.406 263.983 285.412 254.973 293.186 247.2C300.959 239.427 310.676 233.243 322.336 228.65C333.996 223.703 347.422 221.23 362.616 221.23H394.416C410.316 221.23 424.096 223.88 435.756 229.18C447.769 234.48 457.662 241.547 465.436 250.38C473.209 258.86 479.039 268.753 482.926 280.06C486.812 291.013 488.756 302.143 488.756 313.45V491H338.236C326.576 491 316.152 488.88 306.966 484.64C297.779 480.047 290.006 474.217 283.646 467.15C277.639 459.73 273.046 451.073 269.866 441.18C267.039 431.287 265.626 420.687 265.626 409.38C265.626 398.427 267.216 388.18 270.396 378.64C273.576 369.1 278.169 360.973 284.176 354.26C290.182 347.193 297.602 341.717 306.436 337.83C315.622 333.59 325.869 331.47 337.176 331.47H427.806V326.17C427.806 319.81 427.276 313.98 426.216 308.68C425.156 303.027 423.212 298.257 420.386 294.37C417.559 290.483 413.319 287.48 407.666 285.36C402.012 282.887 394.416 281.65 384.876 281.65H371.626C357.492 281.65 347.422 283.77 341.416 288.01C335.409 291.897 331.346 298.08 329.226 306.56H267.746ZM322.336 409.38C322.336 418.567 324.102 425.457 327.636 430.05C331.522 434.29 335.762 436.41 340.356 436.41H427.806V382.35H340.356C335.762 382.35 331.522 384.647 327.636 389.24C324.102 393.833 322.336 400.547 322.336 409.38ZM641.594 281.65C632.408 281.65 624.811 282.887 618.804 285.36C613.151 287.48 608.734 290.483 605.554 294.37C602.374 298.257 600.078 303.027 598.664 308.68C597.604 313.98 597.074 319.81 597.074 326.17V491H535.064V221.23H597.074V228.12C609.441 223.527 622.691 221.23 636.824 221.23H664.384C679.931 221.23 693.711 223.88 705.724 229.18C717.738 234.48 727.631 241.547 735.404 250.38C743.531 258.86 749.538 268.753 753.424 280.06C757.664 291.013 759.784 302.143 759.784 313.45V491H697.774V326.17C697.774 319.81 697.244 313.98 696.184 308.68C695.124 303.027 693.004 298.257 689.824 294.37C686.998 290.483 682.758 287.48 677.104 285.36C671.451 282.887 663.854 281.65 654.314 281.65H641.594ZM1016.23 221.23V491.53C1016.23 506.017 1014.11 518.737 1009.87 529.69C1005.63 540.997 999.8 550.537 992.38 558.31C984.96 566.437 975.95 572.443 965.35 576.33C954.75 580.57 943.09 582.69 930.37 582.69H809V523.86H920.3C931.253 523.86 940.263 520.503 947.33 513.79C954.75 507.077 958.46 497.713 958.46 485.7V482.52H879.49C867.83 482.52 856.7 480.577 846.1 476.69C835.853 472.45 826.843 466.267 819.07 458.14C811.297 450.013 805.113 440.12 800.52 428.46C795.927 416.447 793.63 402.667 793.63 387.12V316.63C793.63 301.083 795.927 287.48 800.52 275.82C805.113 263.807 811.297 253.737 819.07 245.61C826.843 237.483 835.853 231.477 846.1 227.59C856.7 223.35 867.83 221.23 879.49 221.23H1016.23ZM957.93 280.06H892.74C887.44 280.06 882.493 281.297 877.9 283.77C873.307 285.89 869.243 289.07 865.71 293.31C862.177 297.197 859.35 301.613 857.23 306.56C855.11 311.507 854.05 316.983 854.05 322.99V380.23C854.05 386.237 855.11 391.89 857.23 397.19C859.35 402.49 862.177 407.083 865.71 410.97C869.243 414.857 873.307 418.037 877.9 420.51C882.493 422.63 887.44 423.69 892.74 423.69H957.93V280.06ZM1173.81 430.58C1182.65 430.58 1189.71 429.52 1195.01 427.4C1200.67 425.28 1205.08 422.453 1208.26 418.92C1211.8 415.387 1214.27 411.147 1215.68 406.2C1217.1 401.253 1217.8 395.953 1217.8 390.3V221.23H1279.81V491H1217.8V484.11C1212.15 486.583 1205.97 488.35 1199.25 489.41C1192.89 490.47 1186 491 1178.58 491H1151.55C1135.65 491 1121.7 488.35 1109.68 483.05C1098.02 477.75 1088.31 470.86 1080.53 462.38C1072.76 453.547 1066.75 443.653 1062.51 432.7C1058.63 421.393 1056.68 410.087 1056.68 398.78V221.23H1118.16V386.06C1118.16 392.42 1118.69 398.25 1119.75 403.55C1120.81 408.85 1122.93 413.62 1126.11 417.86C1129.29 421.747 1133.71 424.927 1139.36 427.4C1145.02 429.52 1152.61 430.58 1162.15 430.58H1173.81ZM1385.28 491H1322.74V221.23H1385.28V491ZM1385.28 192.08H1322.74V130.07H1385.28V192.08ZM1541.66 281.65C1532.48 281.65 1524.88 282.887 1518.87 285.36C1513.22 287.48 1508.8 290.483 1505.62 294.37C1502.44 298.257 1500.15 303.027 1498.73 308.68C1497.67 313.98 1497.14 319.81 1497.14 326.17V491H1435.13V221.23H1497.14V228.12C1509.51 223.527 1522.76 221.23 1536.89 221.23H1564.45C1580 221.23 1593.78 223.88 1605.79 229.18C1617.81 234.48 1627.7 241.547 1635.47 250.38C1643.6 258.86 1649.61 268.753 1653.49 280.06C1657.73 291.013 1659.85 302.143 1659.85 313.45V491H1597.84V326.17C1597.84 319.81 1597.31 313.98 1596.25 308.68C1595.19 303.027 1593.07 298.257 1589.89 294.37C1587.07 290.483 1582.83 287.48 1577.17 285.36C1571.52 282.887 1563.92 281.65 1554.38 281.65H1541.66ZM1693.7 317.16C1693.7 304.087 1696.17 291.897 1701.12 280.59C1706.06 268.93 1712.6 258.683 1720.73 249.85C1728.85 241.017 1738.22 234.127 1748.82 229.18C1759.42 223.88 1770.02 221.23 1780.62 221.23H1841.04C1854.82 221.23 1867.01 224.233 1877.61 230.24C1888.56 235.893 1897.57 243.313 1904.64 252.5C1912.06 261.333 1917.71 271.403 1921.6 282.71C1925.84 293.663 1927.96 304.44 1927.96 315.04V383.41H1756.24V397.72C1756.24 410.44 1759.77 419.45 1766.84 424.75C1773.9 430.05 1783.27 432.7 1794.93 432.7H1918.42V492.06H1781.15C1769.13 492.06 1757.83 489.763 1747.23 485.17C1736.63 480.223 1727.26 473.687 1719.14 465.56C1711.36 457.433 1705.18 447.717 1700.59 436.41C1695.99 425.103 1693.7 412.737 1693.7 399.31V317.16ZM1756.77 333.06H1866.48V330.41C1866.48 316.63 1862.94 305.323 1855.88 296.49C1848.81 287.303 1839.27 282.71 1827.26 282.71H1794.4C1788.74 282.71 1783.62 284.123 1779.03 286.95C1774.43 289.423 1770.55 292.78 1767.37 297.02C1764.19 301.26 1761.54 306.383 1759.42 312.39C1757.65 318.043 1756.77 324.05 1756.77 330.41V333.06Z" fill="black"/>
<path d="M1889.87 156.421C1878.07 156.421 1867.57 153.821 1858.37 148.621C1849.37 143.421 1842.27 136.221 1837.07 127.021C1832.07 117.821 1829.57 107.421 1829.57 95.821C1829.57 84.021 1832.07 73.621 1837.07 64.621C1842.27 55.421 1849.37 48.221 1858.37 43.021C1867.57 37.621 1878.07 34.921 1889.87 34.921C1901.47 34.921 1911.77 37.621 1920.77 43.021C1929.77 48.221 1936.77 55.421 1941.77 64.621C1946.97 73.621 1949.57 84.021 1949.57 95.821C1949.57 107.421 1946.97 117.821 1941.77 127.021C1936.77 136.221 1929.77 143.421 1920.77 148.621C1911.77 153.821 1901.47 156.421 1889.87 156.421ZM1901.87 127.621L1883.27 97.921H1898.57L1918.67 127.621H1901.87ZM1889.87 145.621C1899.67 145.621 1908.07 143.521 1915.07 139.321C1922.27 134.921 1927.87 129.021 1931.87 121.621C1935.87 114.021 1937.87 105.421 1937.87 95.821C1937.87 86.021 1935.87 77.421 1931.87 70.021C1927.87 62.621 1922.27 56.821 1915.07 52.621C1908.07 48.221 1899.67 46.021 1889.87 46.021C1880.07 46.021 1871.47 48.221 1864.07 52.621C1856.87 56.821 1851.27 62.621 1847.27 70.021C1843.27 77.421 1841.27 86.021 1841.27 95.821C1841.27 105.421 1843.27 114.021 1847.27 121.621C1851.27 129.021 1856.87 134.921 1864.07 139.321C1871.47 143.521 1880.07 145.621 1889.87 145.621ZM1865.87 127.621V63.121H1894.37C1901.17 63.121 1906.47 64.921 1910.27 68.521C1914.27 71.921 1916.27 76.721 1916.27 82.921C1916.27 88.921 1914.27 93.721 1910.27 97.321C1906.47 100.721 1901.17 102.421 1894.37 102.421H1879.97V127.621H1865.87ZM1879.97 91.021H1893.17C1895.77 91.021 1897.87 90.421 1899.47 89.221C1901.27 88.021 1902.17 86.021 1902.17 83.221C1902.17 80.421 1901.27 78.521 1899.47 77.521C1897.87 76.321 1895.77 75.721 1893.17 75.721H1879.97V91.021Z" fill="black"/>
</svg>
