<svg width="66" height="33" viewBox="0 0 66 33" fill="none" xmlns="http://www.w3.org/2000/svg"><path d="M63.0506 0.996324L0 6.11719L2.18338 33L65.234 27.8792L63.0506 0.996324Z" fill="black"></path><path d="M12.365 15.3142L12.3353 15.6564L14.0258 15.5192L13.7531 17.8087L12.0626 17.9459L11.2171 25.4211L8.17775 25.6678L9.02324 18.1925L7.57972 18.3097L7.85243 16.0203L9.29595 15.9031L9.36913 15.1603C9.63107 12.9664 10.2828 11.8176 12.4106 11.6449C13.3602 11.5679 13.8237 11.6249 14.3648 11.6941L14.2994 13.9476C13.0075 14.0525 12.5007 14.1692 12.3644 15.3142" fill="white"></path><path d="M14.916 12.7859C15.0051 12.0036 15.6193 11.5573 16.3792 11.4957C17.3288 11.4186 18.0186 11.9102 17.9257 12.8815C17.819 13.6836 17.2223 14.11 16.4625 14.1717C15.5128 14.2487 14.8055 13.7776 14.916 12.7859ZM17.6576 15.2277L16.5394 24.9924L13.5 25.239L14.6182 15.4744L17.6576 15.2277Z" fill="white"></path><path d="M22.3169 17.1168L21.8485 21.2358C21.7281 22.3414 22.0451 22.24 23.3363 22.1353L23.2549 24.4282C22.6946 24.5868 22.2062 24.702 21.447 24.7636C19.1294 24.9517 18.5539 23.7514 18.8152 21.5575L19.2775 17.3634L17.9286 17.4729L18.2013 15.1835L19.5496 15.0741L19.8634 12.3468L22.9028 12.1001L22.589 14.8274L24.2794 14.6902L24.0067 16.9796L22.3163 17.1168L22.3169 17.1168Z" fill="white"></path><path d="M32.924 20.6018C33.1146 22.9476 31.3337 24.094 28.7317 24.3052C25.1603 24.595 24.0229 23.0623 23.8765 21.2605L26.688 21.0323C26.6706 21.9974 27.3869 22.3357 28.4883 22.2463C29.4379 22.1692 29.9805 21.7853 29.9271 21.1283C29.8737 20.4714 29.1855 20.4707 27.7824 20.15C26.0683 19.76 24.6469 19.214 24.5218 17.6747C24.354 15.6097 26.0976 14.2402 28.5479 14.0414C31.9479 13.7654 32.9732 15.3263 33.0983 16.8656L30.3058 17.0922C30.3004 16.3176 29.6083 16.0339 28.7151 16.1064C27.9553 16.1681 27.4607 16.435 27.5034 16.9607C27.5507 17.5426 28.0141 17.5997 29.3379 17.8886C31.1298 18.2908 32.7851 18.8934 32.924 20.6018Z" fill="white"></path><path d="M40.4745 18.3805C40.8853 16.3823 40.1908 15.3619 38.7663 15.4775C37.5126 15.5792 36.6003 16.5789 36.2498 18.3836C35.8384 20.3818 36.5335 21.4022 37.977 21.2851C39.2117 21.1848 40.1247 20.1852 40.4751 18.3805M33.1433 18.9756C33.5006 15.8477 35.8111 13.4501 39.154 13.1787C42.2879 12.9244 43.9168 14.8517 43.5823 17.7884C43.2244 20.9163 40.9145 23.3139 37.59 23.5838C34.437 23.8397 32.8082 21.9123 33.1433 18.9756Z" fill="white"></path><path d="M48.1838 8.91288L46.6345 22.5483L43.5957 22.7949L45.145 9.15951L48.1838 8.91288Z" fill="white"></path><path d="M50.957 16.4163L54.946 16.0926C55.0709 14.5711 54.3003 14.0289 53.2364 14.1152C51.9827 14.217 51.1131 15.0435 50.957 16.4163ZM54.4104 18.9135L57.4689 18.6652C56.7266 20.8225 55.1338 22.1613 52.5883 22.3679C49.2645 22.6377 47.4224 20.4443 47.8397 17.1039C48.1978 14.2218 50.1822 12.2845 53.1835 12.0409C56.6025 11.7634 58.1338 14.1332 57.7247 17.567L50.7343 18.1344C50.5873 19.6201 51.6079 20.1796 52.5963 20.0994C53.7357 20.0069 54.3546 19.39 54.4117 18.9127" fill="white"></path></svg>