<svg width="94" height="38" viewBox="0 0 94 38" fill="none" xmlns="http://www.w3.org/2000/svg">
<rect x="0.98291" y="8.04004" width="90" height="30" transform="rotate(-4.96546 0.98291 8.04004)" fill="black"/>
<path d="M17.9547 19.9153L13.9896 20.2598C13.8169 20.2748 13.6737 20.3207 13.5599 20.3975C13.4583 20.4599 13.3722 20.5476 13.3017 20.6608C13.2313 20.774 13.1819 20.8988 13.1536 21.0351C13.1241 21.1581 13.1146 21.2794 13.1249 21.3989C13.1469 21.6513 13.2468 21.8768 13.4246 22.0755C13.6146 22.2598 13.8292 22.3415 14.0683 22.3207L16.2999 22.1268C16.7648 22.0864 17.1768 22.1309 17.5361 22.2603C17.9086 22.3886 18.2198 22.5824 18.4699 22.8417C18.7332 23.0999 18.9348 23.4169 19.0745 23.7929C19.2275 24.1678 19.3231 24.5743 19.3611 25.0127L19.3663 25.0725C19.4044 25.5108 19.366 25.9157 19.251 26.287C19.1494 26.6572 18.9833 26.9794 18.7528 27.2538C18.5224 27.5281 18.2408 27.7533 17.9081 27.9294C17.5755 28.1055 17.2165 28.2103 16.8313 28.2438L12.0095 28.6627L11.8381 26.6901L15.9825 26.3301C16.288 26.3035 16.5595 26.193 16.7968 25.9983C17.0475 25.8026 17.1645 25.5314 17.1477 25.1849L17.1495 25.2048C17.1322 25.0056 17.0779 24.843 16.9866 24.7171C16.9087 24.59 16.8065 24.4919 16.68 24.4225C16.5524 24.3399 16.4138 24.2851 16.2642 24.2579C16.1146 24.2308 15.9601 24.2241 15.8007 24.238L14.0075 24.3938C13.423 24.4445 12.9301 24.3937 12.5287 24.2412C12.1406 24.0875 11.821 23.8744 11.5698 23.6018C11.3319 23.328 11.1569 23.0086 11.0449 22.6436C10.9329 22.2786 10.8601 21.9035 10.8267 21.5183C10.792 21.1198 10.8183 20.7294 10.9056 20.3471C10.9928 19.9647 11.1372 19.6243 11.3388 19.3257C11.5525 19.0127 11.8251 18.7615 12.1566 18.5721C12.4882 18.3827 12.8731 18.269 13.3114 18.2309L17.7746 17.8431L17.9547 19.9153ZM20.2464 20.9609C20.2493 20.5323 20.3071 20.1191 20.4198 19.7212C20.5457 19.3221 20.7421 18.9638 21.0089 18.6462C21.2758 18.3286 21.6209 18.0644 22.0442 17.8536C22.4664 17.6295 22.9631 17.4927 23.5343 17.4431L24.7298 17.3392C25.3275 17.2873 25.8542 17.3419 26.3099 17.5031C26.7788 17.6631 27.1738 17.8964 27.4949 18.2031C27.8148 18.4965 28.0663 18.8494 28.2494 19.2618C28.4313 19.6609 28.5407 20.073 28.5776 20.498L29.1575 27.1729L23.4989 27.6645C23.0605 27.7026 22.6617 27.6569 22.3025 27.5275C21.9421 27.3849 21.6309 27.1911 21.3687 26.9462C21.1186 26.6869 20.9177 26.3764 20.7658 26.0149C20.6272 25.6522 20.5395 25.2583 20.5025 24.8332C20.4668 24.4214 20.4931 24.031 20.5815 23.662C20.6699 23.293 20.816 22.9724 21.0199 22.7004C21.2226 22.4152 21.4837 22.185 21.8031 22.0101C22.1346 21.8207 22.5129 21.7075 22.9379 21.6706L26.3451 21.3745L26.3278 21.1753C26.307 20.9362 26.2681 20.7187 26.2109 20.523C26.1526 20.3139 26.0639 20.1409 25.945 20.004C25.826 19.8671 25.6568 19.7681 25.4374 19.7069C25.2167 19.6323 24.9271 19.6107 24.5685 19.6418L24.0703 19.6851C23.539 19.7313 23.1674 19.8438 22.9554 20.0229C22.7423 20.1886 22.6097 20.4343 22.5577 20.7601L20.2464 20.9609ZM22.6345 24.648C22.6645 24.9934 22.7534 25.2466 22.9013 25.4078C23.0612 25.5545 23.2276 25.6203 23.4002 25.6053L26.6879 25.3197L26.5113 23.2873L23.2237 23.573C23.051 23.588 22.8991 23.6882 22.768 23.8735C22.6502 24.0578 22.6057 24.3159 22.6345 24.648ZM34.2196 18.8033C33.8742 18.8333 33.5927 18.9046 33.3749 19.0172C33.1693 19.1154 33.0131 19.2427 32.9063 19.3992C32.7994 19.5557 32.7286 19.7426 32.694 19.9597C32.6714 20.1624 32.6705 20.3833 32.6913 20.6224L33.2297 26.8191L30.8985 27.0216L30.0173 16.8798L32.3486 16.6773L32.3711 16.9363C32.821 16.7232 33.3116 16.5936 33.8429 16.5475L34.879 16.4574C35.4635 16.4067 35.9902 16.4613 36.4591 16.6213C36.9281 16.7813 37.3231 17.0146 37.6442 17.3213C37.9774 17.6136 38.2355 17.9659 38.4186 18.3783C38.6137 18.7762 38.7298 19.1877 38.7667 19.6128L39.3467 26.2876L37.0154 26.4902L36.4771 20.2935C36.4563 20.0544 36.4173 19.837 36.3602 19.6412C36.3018 19.4321 36.2066 19.2597 36.0743 19.124C35.9554 18.9871 35.7862 18.888 35.5667 18.8268C35.3461 18.7523 35.0565 18.7306 34.6978 18.7618L34.2196 18.8033ZM48.1064 15.3082L48.9893 25.4699C49.0366 26.0146 48.9984 26.4997 48.8748 26.9253C48.7523 27.3642 48.5643 27.7419 48.3107 28.0584C48.0583 28.3881 47.7392 28.6434 47.3534 28.8241C46.9688 29.0181 46.5374 29.1359 46.0592 29.1775L41.4964 29.5739L41.3042 27.3622L45.4884 26.9987C45.9002 26.9629 46.228 26.8073 46.4717 26.5318C46.7287 26.2552 46.8376 25.8911 46.7984 25.4395L46.788 25.3199L43.8192 25.5778C43.3808 25.6159 42.9561 25.5792 42.5449 25.4677C42.1458 25.3418 41.7869 25.1388 41.4681 24.8586C41.1493 24.5785 40.8846 24.2268 40.6738 23.8034C40.4619 23.3668 40.3305 22.8563 40.2798 22.2718L40.0495 19.6218C39.9987 19.0373 40.0406 18.5184 40.1752 18.0651C40.3087 17.5984 40.5083 17.1996 40.7739 16.8687C41.0396 16.5378 41.3587 16.2826 41.7313 16.103C42.1159 15.909 42.5274 15.7929 42.9658 15.7548L48.1064 15.3082ZM46.1068 17.7103L43.656 17.9232C43.4568 17.9405 43.2749 18.0032 43.1103 18.1112C42.9445 18.2059 42.8021 18.3387 42.6831 18.5096C42.563 18.6673 42.4712 18.8426 42.4076 19.0355C42.3441 19.2284 42.3221 19.4377 42.3417 19.6635L42.5287 21.8154C42.5483 22.0412 42.6066 22.2503 42.7036 22.4426C42.8006 22.635 42.9219 22.7984 43.0674 22.933C43.213 23.0676 43.3761 23.1738 43.5569 23.2518C43.7365 23.3165 43.9259 23.3402 44.1252 23.3229L46.5759 23.11L46.1068 17.7103ZM54.7144 22.6639C55.0465 22.635 55.3087 22.5721 55.501 22.4751C55.7066 22.3769 55.8634 22.2562 55.9715 22.113C56.0927 21.9686 56.1719 21.8011 56.2089 21.6106C56.2458 21.42 56.2551 21.2184 56.2366 21.0059L55.6844 14.6498L58.0156 14.4473L58.8968 24.5891L56.5655 24.7916L56.543 24.5326C56.3386 24.6441 56.1119 24.7307 55.863 24.7924C55.6273 24.8531 55.37 24.8955 55.0911 24.9197L54.0749 25.008C53.4772 25.06 52.9438 25.0059 52.4749 24.8459C52.0192 24.6847 51.6314 24.4574 51.3115 24.164C50.9904 23.8573 50.7323 23.505 50.5371 23.1071C50.3541 22.6947 50.2441 22.276 50.2071 21.8509L49.6272 15.1761L51.9385 14.9753L52.4769 21.1719C52.4977 21.411 52.5366 21.6285 52.5938 21.8243C52.651 22.0201 52.7462 22.1925 52.8796 22.3415C53.0119 22.4772 53.1883 22.5823 53.4089 22.6568C53.6284 22.7181 53.9174 22.7331 54.2761 22.702L54.7144 22.6639ZM62.8618 24.2446L60.5107 24.4489L59.6295 14.3071L61.9807 14.1028L62.8618 24.2446ZM61.8855 13.0069L59.5343 13.2112L59.3318 10.88L61.6829 10.6757L61.8855 13.0069ZM68.057 15.8635C67.7116 15.8935 67.4301 15.9648 67.2123 16.0774C67.0067 16.1756 66.8505 16.3029 66.7436 16.4594C66.6368 16.6159 66.566 16.8027 66.5313 17.0199C66.5088 17.2226 66.5079 17.4435 66.5287 17.6826L67.0671 23.8792L64.7359 24.0818L63.8547 13.94L66.1859 13.7374L66.2084 13.9965C66.6584 13.7834 67.149 13.6538 67.6803 13.6076L68.7164 13.5176C69.3009 13.4668 69.8276 13.5214 70.2965 13.6814C70.7655 13.8415 71.1605 14.0748 71.4816 14.3815C71.8148 14.6738 72.0729 15.0261 72.2559 15.4384C72.4511 15.8364 72.5672 16.2479 72.6041 16.6729L73.184 23.3478L70.8528 23.5503L70.3144 17.3537C70.2937 17.1146 70.2547 16.8971 70.1975 16.7013C70.1392 16.4923 70.0439 16.3199 69.9117 16.1841C69.7927 16.0473 69.6235 15.9482 69.4041 15.887C69.1835 15.8125 68.8938 15.7908 68.5352 15.8219L68.057 15.8635ZM73.8886 16.7019C73.8459 16.2104 73.8991 15.744 74.0481 15.3028C74.196 14.8483 74.4083 14.4417 74.6849 14.0831C74.9616 13.7245 75.2911 13.4349 75.6734 13.2143C76.0546 12.9804 76.4445 12.8462 76.843 12.8116L79.1144 12.6142C79.6325 12.5692 80.1006 12.6423 80.5187 12.8335C80.9489 13.0102 81.3119 13.2598 81.6075 13.582C81.9154 13.8899 82.1608 14.25 82.3438 14.6624C82.539 15.0603 82.6539 15.4585 82.6885 15.857L82.9118 18.4273L76.4561 18.9882L76.5029 19.5262C76.5444 20.0044 76.7067 20.3316 76.9897 20.5077C77.2727 20.6839 77.6333 20.7529 78.0717 20.7149L82.7142 20.3115L82.9081 22.5431L77.7475 22.9915C77.2959 23.0307 76.8633 22.9813 76.4498 22.8432C76.0351 22.6919 75.6618 22.4767 75.3297 22.1978C75.0109 21.9176 74.7468 21.5725 74.5371 21.1625C74.3275 20.7524 74.2008 20.295 74.1569 19.7902L73.8886 16.7019ZM76.3116 17.0936L80.4361 16.7353L80.4274 16.6356C80.3824 16.1176 80.2127 15.7041 79.9181 15.3951C79.6225 15.0728 79.2488 14.9313 78.7972 14.9705L77.5618 15.0778C77.3493 15.0963 77.1613 15.1662 76.9979 15.2874C76.8333 15.3954 76.6981 15.5343 76.5924 15.7041C76.4867 15.8739 76.4038 16.0751 76.3437 16.3079C76.2958 16.5262 76.2822 16.7549 76.303 16.994L76.3116 17.0936Z" fill="white"/>
</svg>
