<svg width="160" height="101" viewBox="0 0 160 101" fill="none" xmlns="http://www.w3.org/2000/svg">
<path d="M99.3897 50.6434C99.3897 78.0794 77.1641 100.31 49.7378 100.31C22.3116 100.31 0.0859375 78.0745 0.0859375 50.6434C0.0859375 23.2123 22.317 0.976807 49.7378 0.976807C77.1586 0.976807 99.3897 23.2123 99.3897 50.6434Z" fill="#EB001B"/>
<path d="M109.368 0.976807C98.2329 0.976807 87.9816 4.68698 79.6973 10.8806L79.737 10.8855C81.3663 12.4598 83.1639 13.5678 84.5497 15.3801L74.2189 15.5441C72.5999 17.1783 71.1248 18.9563 69.7341 20.804H87.9516C89.3374 22.4676 90.6186 23.9133 91.7811 25.7507H66.4314C65.5026 27.3501 64.6436 28.9941 63.8935 30.7024H94.6671C95.4716 32.4057 96.1918 33.6924 96.803 35.4955H62.0708C61.5195 37.2092 61.0478 38.9621 60.6899 40.75H98.258C98.6256 42.4686 98.9084 44.0576 99.1023 45.6771H59.9447C59.7807 47.3113 59.6963 48.97 59.6963 50.6439H99.385C99.385 52.4023 99.2608 54.0311 99.0821 55.6108H59.9447C60.1136 57.2946 60.362 58.9484 60.6899 60.5777H98.198C97.8107 62.1868 97.3635 63.8058 96.8024 65.4847H61.9564C62.4826 67.1831 63.1238 68.832 63.8237 70.4412H94.6671C93.8129 72.2492 92.8444 73.6943 91.7767 75.3879H66.3426C67.346 77.1262 68.4534 78.7849 69.6551 80.3744L87.9521 80.6473C86.3926 82.5196 84.3912 83.6472 82.568 85.2863C82.6671 85.3658 79.6526 85.2764 73.7172 85.1822C82.7467 94.4999 95.3671 100.311 109.368 100.311C136.799 100.311 159.034 78.0745 159.034 50.6439C159.034 23.2134 136.804 0.976807 109.368 0.976807Z" fill="#F79E1B"/>
</svg>
