<svg width="332" height="103" viewBox="0 0 332 103" fill="none" xmlns="http://www.w3.org/2000/svg">
<path d="M117.409 101.154L134.14 2.97681H160.899L144.157 101.154H117.409Z" fill="#1434CB"/>
<path d="M240.836 5.09411C235.535 3.10512 227.227 0.970703 216.852 0.970703C190.41 0.970703 171.785 14.2863 171.626 33.3702C171.477 47.4771 184.923 55.3468 195.074 60.0429C205.49 64.8559 208.992 67.9246 208.942 72.221C208.875 78.8023 200.624 81.8079 192.931 81.8079C182.222 81.8079 176.532 80.3199 167.743 76.6554L164.294 75.0947L160.539 97.0723C166.789 99.8135 178.347 102.187 190.348 102.311C218.477 102.311 236.738 89.1469 236.946 68.7676C237.046 57.599 229.917 49.1005 214.478 42.0934C205.125 37.5517 199.396 34.5211 199.457 29.9223C199.457 25.8415 204.306 21.4779 214.783 21.4779C223.533 21.342 229.872 23.2502 234.811 25.2392L237.209 26.3721L240.836 5.09411Z" fill="#1434CB"/>
<path d="M309.696 2.97632H289.019C282.613 2.97632 277.819 4.72457 275.006 11.1178L235.265 101.089H263.365C263.365 101.089 267.958 88.9925 268.998 86.3361C272.068 86.3361 299.366 86.3782 303.269 86.3782C304.069 89.8155 306.524 101.089 306.524 101.089H331.355L309.696 2.97632ZM276.889 66.371C279.103 60.7145 287.551 38.9264 287.551 38.9264C287.393 39.1877 289.748 33.2424 291.099 29.5563L292.908 38.0207C292.908 38.0207 298.031 61.4557 299.102 66.3695H276.889V66.371Z" fill="#1434CB"/>
<path d="M0.899466 2.97656L0.557617 5.01884C11.1359 7.57954 20.5839 11.2858 28.8556 15.8963L52.5999 100.996L80.9126 100.965L123.041 2.97656H94.6933L68.4954 69.926L65.7047 56.3196C65.574 55.8992 65.4319 55.4781 65.2865 55.0561L56.179 11.2652C54.5597 5.04847 49.8617 3.19321 44.0498 2.97656H0.899466Z" fill="#1434CB"/>
</svg>
